# xmcd
#
# Track frame offsets:
#	150
#	18837
#	34782
#	49905
#	72542
#	89795
#	104712
#	120802
#	142687
#	156352
#	172502
#	191965
#	208190
#	228282
#	244237
#
# Disc length: 3471 seconds
#
# Revision: 11
# Processed by: cddbd v1.5.2PL0 Copyright (c) Steve Scherf et al.
# Submitted via: EasyCDDAExtractor 10.0.3.1
#
DISCID=ce0d8d0f
DTITLE=쿨 - Sorrow
DYEAR=1998
DGENRE=Other
TTITLE0=그대 그리워지는 이 밤에
TTITLE1=애상
TTITLE2=변명
TTITLE3=영원한 비밀
TTITLE4=날아 날아
TTITLE5=클레멘타인
TTITLE6=복에서 온 민숙이
TTITLE7=친구가 연인이 되기까지
TTITLE8=또자 쿨쿨
TTITLE9=오토리버스
TTITLE10=지난 슬픔 버리고
TTITLE11=북에서 온 민숙이 (Sam Version)
TTITLE12=한장의 추억
TTITLE13=애상 (MR)
TTITLE14=북에서 온 민숙이 (MR)
EXTD=Samsung Music 1998\nOrange Popular
EXTT0=
EXTT1=
EXTT2=
EXTT3=
EXTT4=
EXTT5=
EXTT6=
EXTT7=
EXTT8=
EXTT9=
EXTT10=
EXTT11=
EXTT12=
EXTT13=
EXTT14=
PLAYORDER=
